<?xml version="1.0" encoding="UTF-8" standalone="no"?>
<!-- Created with Inkscape (http://www.inkscape.org/) -->

<svg
   xmlns:dc="http://purl.org/dc/elements/1.1/"
   xmlns:cc="http://creativecommons.org/ns#"
   xmlns:rdf="http://www.w3.org/1999/02/22-rdf-syntax-ns#"
   xmlns:svg="http://www.w3.org/2000/svg"
   xmlns="http://www.w3.org/2000/svg"
   xmlns:sodipodi="http://sodipodi.sourceforge.net/DTD/sodipodi-0.dtd"
   xmlns:inkscape="http://www.inkscape.org/namespaces/inkscape"
   id="svg2"
   version="1.1"
   inkscape:version="0.48.4 r9939"
   width="510"
   height="129.82629"
   xml:space="preserve"
   sodipodi:docname="netfree_1.svg"
   inkscape:export-filename="/home/magicode/Downloads/netfree_1.png"
   inkscape:export-xdpi="347.69797"
   inkscape:export-ydpi="347.69797"><metadata
     id="metadata8"><rdf:RDF><cc:Work
         rdf:about=""><dc:format>image/svg+xml</dc:format><dc:type
           rdf:resource="http://purl.org/dc/dcmitype/StillImage" /><dc:title /></cc:Work></rdf:RDF></metadata><defs
     id="defs6" /><sodipodi:namedview
     pagecolor="#ffffff"
     bordercolor="#666666"
     borderopacity="1"
     objecttolerance="10"
     gridtolerance="10"
     guidetolerance="10"
     inkscape:pageopacity="0"
     inkscape:pageshadow="2"
     inkscape:window-width="1920"
     inkscape:window-height="1012"
     id="namedview4"
     showgrid="false"
     inkscape:zoom="1.6636364"
     inkscape:cx="188.88802"
     inkscape:cy="-39.191067"
     inkscape:window-x="-2"
     inkscape:window-y="-3"
     inkscape:window-maximized="1"
     inkscape:current-layer="g12"
     fit-margin-top="5"
     fit-margin-left="5"
     fit-margin-right="5"
     fit-margin-bottom="5" /><g
     id="g10"
     inkscape:groupmode="layer"
     inkscape:label="ink_ext_XXXXXX"
     transform="matrix(1.25,0,0,-1.25,4.1645512,125.24866)"><g
       id="g12"
       transform="scale(0.1,0.1)"><path
         d="m 1092.6289,296.10224 67.5063,0 0,406.30291 264.3133,-406.30291 66.7946,0 0,531.54442 -66.7946,0 0,-407.35006 -263.5832,407.35006 -68.2364,0 0,-531.54442"
         style="fill:#7b7979;fill-opacity:1;fill-rule:nonzero;stroke:none"
         id="path14"
         inkscape:connector-curvature="0" /><path
         d="m 1584.9238,389.75332 c 0,-86.50303 57.4782,-98.34435 105.3168,-95.70936 0,0 212.1771,10.79509 223.4066,12.34782 l 0,52.78224 -216.9093,0 c -21.0079,0 -44.4095,-0.75787 -44.9826,37.87247 l 0,128.52625 231.7432,6.53435 0,53.72129 -231.7432,8.01497 0,127.91348 c 0,19.60399 0,40.65163 37.7644,40.65163 l 224.1275,0 0,53.505 c -12.8193,1.80505 -230.6619,11.62507 -230.6619,11.62507 -49.1787,1.91318 -98.0615,-21.77041 -98.0615,-98.6697 l 0,-339.11551"
         style="fill:#7b7979;fill-opacity:1;fill-rule:nonzero;stroke:none"
         id="path16"
         inkscape:connector-curvature="0" /><path
         d="m 1973.0664,763.02217 152.1386,0 0,-466.91993 66.7947,0 0,466.91993 156.5101,0 0,64.62449 -375.4434,0 0,-64.62449"
         style="fill:#7b7979;fill-opacity:1;fill-rule:nonzero;stroke:none"
         id="path18"
         inkscape:connector-curvature="0" /><path
         d="m 2436.7376,296.10224 29.7881,0 0,247.59386 253.4074,5.12675 0,21.04856 -253.4074,5.05466 0,158.34767 c 0,42.81806 18.8452,64.58754 61.702,64.58754 l 220.7357,0 0,21.08462 -220.7357,8.70076 c -47.2285,1.44459 -91.4901,-23.21407 -91.4901,-94.37292 l 0,-437.1715"
         style="fill:#648e86;fill-opacity:1;fill-rule:nonzero;stroke:none"
         id="path20"
         inkscape:connector-curvature="0" /><path
         d="m 2837.5608,296.10224 29.7418,0 0,236.7276 c 2.209,-1.44458 140.1884,-7.2571 165.6048,-7.97894 l 116.1859,-228.74866 31.1929,0 -114.707,229.4705 c 41.3781,2.16641 107.4795,14.51328 107.4795,151.74123 0,127.11862 -65.3435,150.33269 -126.3617,150.33269 l -209.1362,0 0,-531.54442 z m 29.7418,259.9777 0,241.05951 179.3944,0 c 47.1917,0 95.8619,-13.79147 95.8619,-119.82548 0,-110.36683 -46.5075,-121.23403 -95.8619,-121.23403 l -179.3944,0"
         style="fill:#648e86;fill-opacity:1;fill-rule:nonzero;stroke:none"
         id="path22"
         inkscape:connector-curvature="0" /><path
         d="m 3276.1388,385.4205 c 0,-82.06207 50.8331,-93.65108 98.7732,-91.48468 l 213.5174,8.70077 0,21.04858 -213.5174,0 c -33.3926,0 -68.9574,4.40399 -68.9574,61.73533 l 0,158.2756 253.4074,5.12675 0,21.04856 -253.4074,5.05466 0,158.34767 c 0,42.81806 18.8455,64.58754 61.7022,64.58754 l 220.7726,0 0,21.08462 -220.7726,8.70076 c -47.1823,1.44459 -91.518,-23.21407 -91.518,-94.37292 l 0,-347.85324"
         style="fill:#648e86;fill-opacity:1;fill-rule:nonzero;stroke:none"
         id="path24"
         inkscape:connector-curvature="0" /><path
         d="m 3694.43,385.4205 c 0,-82.06207 50.7962,-93.65108 98.7364,-91.48468 l 213.5172,8.70077 0,21.04858 -213.5172,0 c -33.3927,0 -68.9574,4.40399 -68.9574,61.73533 l 0,158.2756 253.4072,5.12675 0,21.04856 -253.4072,5.05466 0,158.34767 c 0,42.81806 18.8453,64.58754 61.739,64.58754 l 220.7356,0 0,21.08462 -220.7356,8.70076 c -47.2284,1.44459 -91.518,-23.21407 -91.518,-94.37292 l 0,-347.85324"
         style="fill:#648e86;fill-opacity:1;fill-rule:nonzero;stroke:none"
         id="path26"
         inkscape:connector-curvature="0" /><path
         d="m 1494.1267,78.400986 c 0,11.841324 -2.3845,20.32582 -7.2183,25.344424 -4.7691,5.05465 -13.1796,7.54547 -25.2039,7.54547 l -30.3243,0 0,-103.507426 -18.0133,0 0,120.187136 48.5224,0 c 18.0503,0 30.9343,-3.86331 38.6978,-11.58901 7.7637,-7.69058 11.6639,-20.434879 11.6639,-38.160821 l 0,-70.437305 -18.1243,0 0,70.617532"
         style="fill:#7b7979;fill-opacity:1;fill-rule:nonzero;stroke:none"
         id="path28"
         inkscape:connector-curvature="0" /><path
         d="m 1589.1845,7.783454 18.0154,0 0,120.186856 -18.0154,0 0,-120.186856 z"
         style="fill:#7b7979;fill-opacity:1;fill-rule:nonzero;stroke:none"
         id="path30"
         inkscape:connector-curvature="0" /><path
         d="m 1732.5522,5.7616855 c -16.6456,0 -28.8825,4.2240404 -36.72,12.6360755 -7.8653,8.375899 -11.8024,21.264661 -11.8024,38.702426 l 0,70.870403 18.0502,0 0,-70.256709 c 0,-12.130612 2.3846,-21.011882 7.1814,-26.680136 4.843,-5.595885 12.6805,-8.375898 23.5772,-8.375898 12.8192,0 22.0985,3.899171 27.8381,11.841788 5.7395,7.90657 8.6323,21.011973 8.6323,39.280166 0,13.611237 -1.451,23.575437 -4.3346,29.857479 -2.8929,6.31808 -7.7636,9.45864 -14.6585,9.45864 -6.7191,0 -13.1056,-2.09432 -19.3535,-6.35413 l 0,17.25735 c 5.1296,3.97145 12.1722,5.95671 21.0819,5.95671 8.9559,0 16.0355,-1.94921 21.1281,-5.77648 5.1203,-3.82634 8.9466,-9.92815 11.368,-18.19545 2.4585,-8.26823 3.6785,-18.990302 3.6785,-32.204119 0,-23.430889 -4.4733,-40.652011 -13.4291,-51.591281 -8.9466,-10.903039 -22.9951,-16.4268345 -42.2376,-16.4268345"
         style="fill:#7b7979;fill-opacity:1;fill-rule:nonzero;stroke:none"
         id="path32"
         inkscape:connector-curvature="0" /><path
         d="m 1855.3371,111.29088 0,16.67971 36.8954,0 c 18.0503,0 30.9436,-3.86331 38.7072,-11.58901 7.7635,-7.69058 11.6638,-20.434879 11.6638,-38.160821 l 0,-53.757691 13.0319,0 0,-16.679614 -104.9195,0 0,16.679614 73.828,0 0,53.937918 c 0,11.986429 -2.4124,20.506046 -7.2922,25.416514 -4.8337,5.01861 -13.2813,7.47338 -25.1948,7.47338 l -36.7198,0"
         style="fill:#7b7979;fill-opacity:1;fill-rule:nonzero;stroke:none"
         id="path34"
         inkscape:connector-curvature="0" /><path
         d="m 2200.1236,127.97059 18.5957,0 -3.0037,-32.132025 c -0.9704,-10.903224 -2.3108,-18.773102 -4.0021,-23.647527 -1.6636,-4.837459 -4.1219,-8.592355 -7.3662,-11.263955 -3.2901,-2.635556 -8.734,-4.946148 -16.2479,-7.003961 l -14.6955,-3.393706 4.769,-25.308197 2.3846,0 c 13.1058,0 23.6051,0.794288 31.5536,2.310593 7.8651,1.552439 14.0761,3.935216 18.6972,7.220601 4.5843,3.285385 8.124,7.870434 10.6196,13.827417 2.4862,5.956986 4.5102,15.307677 5.9889,27.980075 l 6.211,51.410685 18.8822,0 -6.2479,-50.796992 c -2.0611,-17.07685 -4.9448,-29.785109 -8.6325,-38.016641 -3.7153,-8.267578 -8.9836,-14.657844 -15.7767,-19.170709 -6.7837,-4.585047 -16.137,-7.834295 -28.0506,-9.928339 -11.9134,-2.0217686 -28.9839,-3.1409273 -51.1935,-3.2492478 l -22.958,121.1619288 18.7713,0 11.9873,-61.808351 7.1443,1.371568 c 7.1168,1.552718 12.0244,4.296777 14.8804,8.267299 2.7819,3.971446 4.5102,10.686953 5.231,20.217685 l 2.4585,31.951799"
         style="fill:#7b7979;fill-opacity:1;fill-rule:nonzero;stroke:none"
         id="path36"
         inkscape:connector-curvature="0" /><path
         d="m 2341.9662,7.783454 18.0516,0 0,120.186856 -18.0516,0 0,-120.186856 z"
         style="fill:#7b7979;fill-opacity:1;fill-rule:nonzero;stroke:none"
         id="path38"
         inkscape:connector-curvature="0" /><path
         d="m 2439.7044,23.63264 c 12.4864,4.657323 23.2075,10.505987 32.1635,17.582223 8.9558,7.112281 15.7767,14.838348 20.3978,23.178107 4.6952,8.375714 7.0057,16.860211 7.0057,25.488886 0,14.260974 -7.6527,21.409024 -22.921,21.409024 l -48.7073,0 0,59.56985 18.0134,0 0,-42.89014 32.5331,0 c 26.2484,0 39.317,-11.69715 39.317,-34.984221 0,-19.062387 -7.0056,-36.644334 -21.0541,-52.746299 -14.0391,-16.065827 -32.9583,-28.376942 -56.7481,-36.86116 l 0,20.25373"
         style="fill:#7b7979;fill-opacity:1;fill-rule:nonzero;stroke:none"
         id="path40"
         inkscape:connector-curvature="0" /><path
         d="m 2596.3163,127.97059 c 6.3217,0 11.1925,-0.5416 14.6214,-1.51667 3.4659,-1.04716 6.2479,-2.67105 8.5216,-4.90955 2.1997,-2.23851 4.2238,-5.66834 6.1,-10.25349 1.8391,-4.58514 4.4732,-14.188882 7.8744,-28.882402 l 17.0706,-74.625024 -17.8285,0 -11.1279,49.352778 c -5.4807,-1.371845 -9.4919,-2.99656 -12.015,-4.982193 -2.4955,-1.98563 -4.5473,-4.873871 -6.2108,-8.736904 -1.5898,-3.826896 -3.1425,-9.856156 -4.5473,-17.979275 l -3.2534,-17.654406 -18.5216,0 3.4289,17.834909 c 1.5527,8.592448 3.1054,15.091034 4.5843,19.495578 1.5527,4.3685 3.4658,8.051029 5.8133,11.047499 2.3106,2.99656 5.3052,5.523794 8.8081,7.473379 3.5397,2.021861 9.8617,4.296409 18.9191,6.751182 -3.2811,13.82751 -5.7396,23.141972 -7.4309,27.980352 -1.7006,4.837457 -3.5768,8.195207 -5.5639,10.108377 -2.0611,1.87713 -4.9447,2.81615 -8.6602,2.81615 l -13.2165,0 0,16.67971 12.6343,0"
         style="fill:#7b7979;fill-opacity:1;fill-rule:nonzero;stroke:none"
         id="path42"
         inkscape:connector-curvature="0" /><path
         d="m 2714.3045,23.63264 c 12.4494,4.657323 23.1705,10.505987 32.1265,17.582223 8.9557,7.112281 15.7767,14.838348 20.3978,23.178107 4.6952,8.375714 7.0427,16.860211 7.0427,25.488886 0,14.260974 -7.6527,21.409024 -22.9303,21.409024 l -48.6981,0 0,59.56985 18.0135,0 0,-42.89014 32.5331,0 c 26.2113,0 39.317,-11.69715 39.317,-34.984221 0,-19.062387 -7.0427,-36.644334 -21.0541,-52.746299 -14.0392,-16.065827 -32.9951,-28.376942 -56.7481,-36.86116 l 0,20.25373"
         style="fill:#7b7979;fill-opacity:1;fill-rule:nonzero;stroke:none"
         id="path44"
         inkscape:connector-curvature="0" /><path
         d="m 3035.0794,127.97059 18.6232,0 -3.0313,-32.132025 c -0.9705,-10.903224 -2.3105,-18.773102 -3.9743,-23.647527 -1.6913,-4.837459 -4.1498,-8.592355 -7.3937,-11.263955 -3.2904,-2.635556 -8.7066,-4.946148 -16.2482,-7.003961 l -14.6954,-3.393706 4.806,-25.308197 2.3383,0 c 13.1427,0 23.6143,0.794288 31.5628,2.310593 7.9021,1.552439 14.1129,3.935216 18.6972,7.220601 4.5843,3.285385 8.1241,7.870434 10.6103,13.827417 2.4954,5.956986 4.5195,15.307677 5.9982,27.980075 l 6.211,51.410685 18.8822,0 -6.2479,-50.796992 c -2.061,-17.07685 -4.9078,-29.785109 -8.6324,-38.016641 -3.7155,-8.267578 -8.9835,-14.657844 -15.7768,-19.170709 -6.7838,-4.585047 -16.1371,-7.834295 -28.0876,-9.928339 -11.9132,-2.0217686 -28.9563,-3.1409273 -51.1194,-3.2492478 l -22.9581,121.1619288 18.7344,0 12.0242,-61.808351 7.1443,1.371568 c 7.0798,1.552718 11.9873,4.296777 14.8433,8.267299 2.7727,3.971446 4.5103,10.686953 5.2312,20.217685 l 2.4585,31.951799"
         style="fill:#7b7979;fill-opacity:1;fill-rule:nonzero;stroke:none"
         id="path46"
         inkscape:connector-curvature="0" /><path
         d="m 3252.959,74.609765 c 0,12.311761 -2.7449,21.518086 -8.124,27.582925 -5.4161,6.06577 -13.9745,9.09819 -25.6292,9.09819 l -27.0062,0 0,-33.901011 23.8269,0 0,-16.64329 -42.136,0 0,67.224011 45.565,0 c 17.4773,0 30.5089,-4.36887 38.9935,-13.06963 8.5214,-8.77286 12.8099,-22.275042 12.8099,-40.723738 l 0,-8.014983 c 0,-38.919251 -18.4108,-58.378785 -55.2324,-58.378785 l -41.0916,0 0,16.679614 41.563,0 c 12.3755,0 21.5901,3.429749 27.5053,10.32539 5.9612,6.859594 8.9558,17.2934 8.9558,31.192631 l 0,8.628676"
         style="fill:#7b7979;fill-opacity:1;fill-rule:nonzero;stroke:none"
         id="path48"
         inkscape:connector-curvature="0" /><path
         d="m 3343.0352,7.783454 17.9793,0 0,120.186856 -17.9793,0 0,-120.186856 z"
         style="fill:#7b7979;fill-opacity:1;fill-rule:nonzero;stroke:none"
         id="path50"
         inkscape:connector-curvature="0" /><path
         d="m 3519.6476,78.400986 c 0,11.841324 -2.4123,20.32582 -7.2183,25.344424 -4.769,5.05465 -13.1795,7.54547 -25.2316,7.54547 l -30.2966,0 0,-103.507426 -18.0134,0 0,120.187136 48.5225,0 c 18.0134,0 30.9065,-3.86331 38.67,-11.58901 7.7638,-7.69058 11.6918,-20.434879 11.6918,-38.160821 l 0,-70.437305 -18.1244,0 0,70.617532"
         style="fill:#7b7979;fill-opacity:1;fill-rule:nonzero;stroke:none"
         id="path52"
         inkscape:connector-curvature="0" /><path
         d="m 3632.4693,7.783454 -18.0135,0 0,78.054866 18.0135,0 0,-78.054866 z m 76.3604,0 -18.1244,0 0,70.617532 c 0,11.986429 -2.4213,20.506046 -7.2921,25.416514 -4.9078,5.01861 -13.2814,7.47338 -25.2687,7.47338 l -45.6758,0 0,16.67971 45.9993,0 c 18.0133,0 30.9065,-3.86331 38.6978,-11.58901 7.7636,-7.69058 11.6639,-20.434879 11.6639,-38.160821 l 0,-70.437305"
         style="fill:#7b7979;fill-opacity:1;fill-rule:nonzero;stroke:none"
         id="path54"
         inkscape:connector-curvature="0" /><path
         d="M 78.059734,780.78508 C 69.141772,673.59484 64.809872,441.41633 190.05047,248.98741 255.79422,342.49432 333.27114,412.85926 414.64745,463.47602 375.43947,669.19085 200.62927,749.55604 78.059734,780.78508"
         style="fill:#918f8f;fill-opacity:1;fill-rule:evenodd;stroke:none"
         id="path56"
         inkscape:connector-curvature="0" /><path
         d="M 846.80034,538.53423 C 818.71279,354.37261 727.26324,133.99938 462.98967,21.50255 l 0,0 -0.0721,-0.03604 0,0.03604 c -119.3929,50.869637 -203.58534,123.83353 -262.50546,205.4982 75.38354,109.97034 167.19357,187.66355 262.5055,238.60472 l 0,0 c 5.34301,2.81615 10.72206,5.63229 16.066,8.30426 127.84048,64.04686 260.69954,81.08702 367.81677,64.6245"
         style="fill:#7b7979;fill-opacity:1;fill-rule:evenodd;stroke:none"
         id="path58"
         inkscape:connector-curvature="0" /><path
         d="m 852.28847,840.82445 c -0.54161,-7.25712 14.87466,-95.05964 8.15917,-212.97194 -37.18576,18.77401 -76.82721,33.10616 -116.5768,42.16831 -87.62229,20.00141 -176.18267,14.44119 -240.62604,-25.45258 -11.62596,20.00142 -23.64752,38.23292 -36.03137,55.02077 l -0.0361,0.0361 c -85.0945,114.98805 -187.158,157.04823 -278.28223,166.50778 167.95143,44.44101 277.63249,95.49587 278.28222,95.81936 l 0,0.037 c 0,0 157.73399,-73.61735 385.1111,-121.16471"
         style="fill:#a7a5a6;fill-opacity:1;fill-rule:evenodd;stroke:none"
         id="path60"
         inkscape:connector-curvature="0" /><path
         d="M 740.40495,645.03776 C 812.57493,628.61037 884.20422,593.95149 939.54753,546.80154 848.28096,574.92607 654.15515,607.59877 436.85132,478.38581 380.78341,738.58071 119.03578,803.81892 6.68359,819.88493 105.56965,851.87185 340.16687,891.5133 490.24727,620.09075 l 6.67945,-12.2027 11.29973,8.08708 c 59.02825,42.34854 145.74848,48.77477 232.1785,29.06263"
         style="fill:#648e86;fill-opacity:1;fill-rule:evenodd;stroke:none"
         id="path62"
         inkscape:connector-curvature="0" /></g></g></svg>