<?xml version="1.0" encoding="UTF-8" standalone="no"?>
<!-- Created with Inkscape (http://www.inkscape.org/) -->

<svg
   xmlns:dc="http://purl.org/dc/elements/1.1/"
   xmlns:cc="http://creativecommons.org/ns#"
   xmlns:rdf="http://www.w3.org/1999/02/22-rdf-syntax-ns#"
   xmlns:svg="http://www.w3.org/2000/svg"
   xmlns="http://www.w3.org/2000/svg"
   xmlns:sodipodi="http://sodipodi.sourceforge.net/DTD/sodipodi-0.dtd"
   xmlns:inkscape="http://www.inkscape.org/namespaces/inkscape"
   id="svg2"
   version="1.1"
   inkscape:version="0.48.4 r9939"
   width="510"
   height="490.01071"
   xml:space="preserve"
   sodipodi:docname="FreeNet.eps"><metadata
     id="metadata8"><rdf:RDF><cc:Work
         rdf:about=""><dc:format>image/svg+xml</dc:format><dc:type
           rdf:resource="http://purl.org/dc/dcmitype/StillImage" /><dc:title></dc:title></cc:Work></rdf:RDF></metadata><defs
     id="defs6" /><sodipodi:namedview
     pagecolor="#ffffff"
     bordercolor="#666666"
     borderopacity="1"
     objecttolerance="10"
     gridtolerance="10"
     guidetolerance="10"
     inkscape:pageopacity="0"
     inkscape:pageshadow="2"
     inkscape:window-width="1920"
     inkscape:window-height="1012"
     id="namedview4"
     showgrid="false"
     fit-margin-top="5"
     fit-margin-left="5"
     fit-margin-right="5"
     fit-margin-bottom="5"
     inkscape:zoom="1.026087"
     inkscape:cx="220.1842"
     inkscape:cy="229.72988"
     inkscape:window-x="-2"
     inkscape:window-y="-3"
     inkscape:window-maximized="1"
     inkscape:current-layer="g12" /><g
     id="g10"
     inkscape:groupmode="layer"
     inkscape:label="ink_ext_XXXXXX"
     transform="matrix(1.25,0,0,-1.25,-11.30375,493.71382)"><g
       id="g12"
       transform="scale(0.1,0.1)"><path
         d="m 1126.7731,3463.1415 c -22.1001,-264.1353 -32.6554,-836.2761 275.8831,-1310.4382 161.9953,230.3508 352.9415,403.8402 553.5549,528.6257 -96.7354,506.8302 -527.5347,704.8555 -829.438,781.8125"
         style="fill:#918f8f;fill-opacity:1;fill-rule:evenodd;stroke:none"
         id="path18"
         inkscape:connector-curvature="0" /><path
         d="m 3020.9858,2866.1349 c -69.1294,-453.6986 -294.4563,-996.7998 -945.6474,-1273.9642 l 0,-0.051 -0.1903,-0.051 0,0.203 c -294.4182,125.2803 -501.7175,305.0242 -646.9665,506.1704 185.732,271.0749 412.0104,462.4651 646.9665,587.9991 l 0,0.051 c 13.1814,7.0284 26.3628,13.8665 39.5442,20.4635 315.0339,157.7834 642.4119,199.8649 906.2935,159.1789"
         style="fill:#7b7979;fill-opacity:1;fill-rule:evenodd;stroke:none"
         id="path20"
         inkscape:connector-curvature="0" /><path
         d="m 3034.5731,3611.1689 c -1.294,-17.9389 36.7151,-234.2583 20.0703,-524.9086 -91.534,46.2427 -189.2589,81.6257 -287.2376,103.9795 -215.8627,49.1987 -434.1613,35.5733 -592.9469,-62.748 -28.5449,49.2621 -58.2316,94.2108 -88.857,135.5438 l 0,0.051 c -209.7224,283.4189 -461.2218,387.0812 -685.7241,410.3358 413.7992,109.5108 683.986,235.3874 685.7241,236.1867 l 0,0.1015 c 0,0 388.6289,-181.482 948.9712,-298.5414"
         style="fill:#a7a5a6;fill-opacity:1;fill-rule:evenodd;stroke:none"
         id="path22"
         inkscape:connector-curvature="0" /><path
         d="m 2758.8296,3128.6336 c 177.8156,-40.5337 354.4386,-125.8766 490.7689,-242.0859 -224.8956,69.4338 -703.2696,149.8162 -1238.7842,-168.4909 -138.1572,641.0672 -783.1446,801.8319 -1060.01721,841.4776 243.67171,78.898 821.69921,176.42 1191.55201,-492.4055 l 16.5941,-30.0292 27.809,19.9307 c 145.4901,104.3093 359.1326,120.1676 572.0774,71.6032"
         style="fill:#648e86;fill-opacity:1;fill-rule:evenodd;stroke:none"
         id="path24"
         inkscape:connector-curvature="0" /><path
         d="m 130.43,471.43538 92.66302,0 0,557.71612 362.81173,-557.71612 91.68614,0 0,729.63242 -91.68614,0 0,-559.16241 -361.80949,559.16241 -93.66526,0 0,-729.63242"
         style="fill:#7b7979;fill-opacity:1;fill-rule:nonzero;stroke:none"
         id="path28"
         inkscape:connector-curvature="0" /><path
         d="m 806.1824,600.03957 c 0,-118.79744 78.94878,-135.04899 144.56394,-131.4333 0,0 291.24656,14.81796 306.66076,16.94931 l 0,72.45324 -297.69132,0 c -28.88742,0 -60.95918,-0.98955 -61.79649,51.98974 l 0,176.42003 318.10411,8.96943 0,73.74728 -318.10411,10.99929 0,175.58271 c 0,26.9083 0,55.7957 51.83749,55.7957 l 307.65032,0 0,73.4428 c -17.5963,2.4739 -316.61975,15.9598 -316.61975,15.9598 -67.45472,2.6261 -134.60495,-29.8897 -134.60495,-135.3915 l 0,-465.48453"
         style="fill:#7b7979;fill-opacity:1;fill-rule:nonzero;stroke:none"
         id="path30"
         inkscape:connector-curvature="0" /><path
         d="m 1339.0201,1112.3503 208.7836,0 0,-640.91492 91.7369,0 0,640.91492 214.7843,0 0,88.7175 -515.3048,0 0,-88.7175"
         style="fill:#7b7979;fill-opacity:1;fill-rule:nonzero;stroke:none"
         id="path32"
         inkscape:connector-curvature="0" /><path
         d="m 1975.4313,471.43538 40.889,0 0,339.9124 347.8415,6.99032 0,28.88742 -347.8415,6.99032 0,217.30896 c 0,58.7644 25.868,88.6541 84.7465,88.6541 l 302.9944,0 0,28.9381 -302.9944,11.9508 c -64.8286,1.9791 -125.6355,-31.8688 -125.6355,-129.543 l 0,-600.08942"
         style="fill:#648e86;fill-opacity:1;fill-rule:nonzero;stroke:none"
         id="path34"
         inkscape:connector-curvature="0" /><path
         d="m 2525.6624,471.43538 40.8382,0 0,324.9422 c 3.0321,-1.97912 192.3798,-9.95899 227.2679,-10.94855 l 159.4834,-313.99365 42.8681,0 -157.5043,314.98321 c 56.8487,3.01941 147.5326,19.91798 147.5326,208.28879 0,174.49162 -89.6943,206.36042 -173.4513,206.36042 l -287.0346,0 0,-729.63242 z m 40.8382,356.86171 0,330.94301 246.1964,0 c 64.7778,0 131.5855,-18.9792 131.5855,-164.53272 0,-151.49083 -63.7883,-166.41029 -131.5855,-166.41029 l -246.1964,0"
         style="fill:#648e86;fill-opacity:1;fill-rule:nonzero;stroke:none"
         id="path36"
         inkscape:connector-curvature="0" /><path
         d="m 3127.6929,594.0388 c 0,-112.64443 69.7763,-128.55344 135.531,-125.57209 l 293.0862,11.9381 0,28.88742 -293.0862,0 c -45.8367,0 -94.6548,6.05151 -94.6548,84.74657 l 0,217.30898 347.8416,6.99032 0,28.88742 -347.8416,6.99032 0,217.30896 c 0,58.7644 25.868,88.6541 84.7466,88.6541 l 302.9944,0 0,28.9381 -302.9944,11.9508 c -64.8159,1.9791 -125.6228,-31.8688 -125.6228,-129.543 l 0,-477.486"
         style="fill:#648e86;fill-opacity:1;fill-rule:nonzero;stroke:none"
         id="path38"
         inkscape:connector-curvature="0" /><path
         d="m 3701.8128,594.0388 c 0,-112.64443 69.7764,-128.55344 135.5818,-125.57209 l 293.0354,11.9381 0,28.88742 -293.0354,0 c -45.8874,0 -94.7055,6.05151 -94.7055,84.74657 l 0,217.30898 347.8923,6.99032 0,28.88742 -347.8923,6.99032 0,217.30896 c 0,58.7644 25.9187,88.6541 84.7465,88.6541 l 302.9944,0 0,28.9381 -302.9944,11.9508 c -64.8285,1.9791 -125.6228,-31.8688 -125.6228,-129.543 l 0,-477.486"
         style="fill:#648e86;fill-opacity:1;fill-rule:nonzero;stroke:none"
         id="path40"
         inkscape:connector-curvature="0" /><path
         d="m 681.54912,172.60477 c 0,16.30356 -3.27315,27.9004 -9.90825,34.78923 -6.54629,6.9383 -18.04036,10.35735 -34.59639,10.35735 l -41.62477,0 0,-142.079911 -24.67546,0 0,164.975431 66.60471,0 c 24.72621,0 42.41135,-5.303 53.0681,-15.90774 10.65675,-10.55653 16.06125,-28.0501 16.06125,-52.38175 l 0,-96.685941 -24.92919,0 0,96.933331"
         style="fill:#7b7979;fill-opacity:1;fill-rule:nonzero;stroke:none"
         id="path42"
         inkscape:connector-curvature="0" /><path
         d="m 812.08167,75.671439 24.67939,0 0,164.975431 -24.67939,0 0,-164.975431 z"
         style="fill:#7b7979;fill-opacity:1;fill-rule:nonzero;stroke:none"
         id="path44"
         inkscape:connector-curvature="0" /><path
         d="m 1008.8257,72.895609 c -22.79789,0 -39.64571,5.797781 -50.40396,17.345136 -10.74556,11.497875 -16.15006,29.189355 -16.15006,53.125185 l 0,97.28094 24.77696,0 0,-96.43855 c 0,-16.65117 3.2224,-28.84174 9.85749,-36.57296 6.59704,-7.731223 17.39335,-11.547356 32.36357,-11.547356 17.5963,0 30.2829,5.401956 38.2121,16.255356 7.8276,10.8534 11.7985,28.84174 11.7985,53.9181 0,18.73305 -1.9918,32.36101 -5.95,40.9841 -3.9202,8.67257 -10.606,12.98348 -20.121,12.98348 -9.1724,0 -17.9389,-2.87478 -26.5657,-8.72204 l 0,23.68844 c 7.0918,5.45143 16.7082,8.17652 28.9381,8.17652 12.2933,0 22.0113,-2.67561 29.0397,-7.92913 6.9903,-5.25226 12.2426,-13.62796 15.6172,-24.97614 3.3239,-11.34944 4.9985,-26.06718 4.9985,-44.20523 0,-32.1631 -6.1403,-55.80079 -18.4336,-70.816667 -12.2426,-14.966396 -31.5643,-22.549184 -57.9778,-22.549184"
         style="fill:#7b7979;fill-opacity:1;fill-rule:nonzero;stroke:none"
         id="path46"
         inkscape:connector-curvature="0" /><path
         d="m 1177.3673,217.75135 0,22.89552 50.6957,0 c 24.7262,0 42.4748,-5.303 53.1315,-15.90774 10.606,-10.55653 15.9598,-28.0501 15.9598,-52.38175 l 0,-73.790412 17.8881,0 0,-22.895529 -144.0184,0 0,22.895529 101.3406,0 0,74.037802 c 0,16.45327 -3.2604,28.14778 -9.9589,34.93766 -6.6351,6.83935 -18.2307,10.20892 -34.5838,10.20892 l -50.4546,0"
         style="fill:#7b7979;fill-opacity:1;fill-rule:nonzero;stroke:none"
         id="path48"
         inkscape:connector-curvature="0" /><path
         d="m 1650.6414,240.64687 25.5635,0 -4.1612,-44.10627 c -1.3321,-14.9664 -3.1717,-25.76905 -5.4426,-32.41049 -2.3343,-6.68965 -5.6582,-11.84422 -10.162,-15.46117 -4.5164,-3.6677 -11.9507,-6.83936 -22.303,-9.6634 l -20.1717,-4.65852 6.597,-34.690272 3.2224,0 c 18.0404,0 32.4016,1.040302 43.3121,3.122172 10.847,2.13135 19.3725,5.40196 25.665,9.91078 6.2926,4.5101 11.1515,10.80392 14.615,18.98045 3.4254,8.22726 6.153,21.01283 8.1829,38.40744 l 8.5254,70.56928 25.9187,0 -8.5761,-69.67741 c -2.7784,-23.49053 -6.7366,-40.88514 -11.8493,-52.23332 -5.1001,-11.34817 -12.3314,-20.119694 -21.6561,-26.314567 -9.312,-6.293828 -22.1508,-10.754441 -38.5039,-13.627958 -16.353,-2.775831 -39.7852,-4.31218 -70.2204,-4.460613 l -31.5135,166.313868 25.7158,0 16.5052,-84.84171 9.8068,1.93217 c 9.7179,2.08187 16.5053,5.898 20.3747,11.29869 3.8187,5.45144 6.1911,14.66953 7.2314,27.75197 l 3.3239,43.85888"
         style="fill:#7b7979;fill-opacity:1;fill-rule:nonzero;stroke:none"
         id="path50"
         inkscape:connector-curvature="0" /><path
         d="m 1845.3935,75.671439 24.729,0 0,164.975431 -24.729,0 0,-164.975431 z"
         style="fill:#7b7979;fill-opacity:1;fill-rule:nonzero;stroke:none"
         id="path52"
         inkscape:connector-curvature="0" /><path
         d="m 1979.5545,97.426442 c 17.0888,6.392788 31.8053,14.420868 44.0986,24.135008 12.2934,9.76235 21.6561,20.36709 27.9994,31.81549 6.4448,11.49661 9.6672,23.14292 9.6672,34.98714 0,19.57417 -10.5045,29.38727 -31.4755,29.38727 l -66.8965,0 0,81.81849 24.7262,0 0,-58.92297 44.6569,0 c 36.03,0 54.0196,-16.05744 54.0196,-48.02136 0,-26.16614 -9.6672,-50.29988 -28.9509,-72.40249 -19.2709,-22.053143 -45.2404,-38.902232 -77.845,-50.59802 l 0,27.801442"
         style="fill:#7b7979;fill-opacity:1;fill-rule:nonzero;stroke:none"
         id="path54"
         inkscape:connector-curvature="0" /><path
         d="m 2194.4784,240.64687 c 8.6776,0 15.3634,-0.74343 20.0702,-2.08187 4.7575,-1.38791 8.6269,-3.6677 11.697,-6.73913 3.0195,-3.07269 5.8486,-7.7807 8.3732,-14.07452 2.5246,-6.29383 6.1911,-19.47649 10.8597,-39.64567 l 23.3815,-102.434241 -24.4218,0 -15.3254,67.743971 c -7.4724,-1.88269 -13.0291,-4.113 -16.4418,-6.83935 -3.4762,-2.72509 -6.2926,-6.64017 -8.5762,-11.99266 -2.1821,-5.25225 -4.3134,-13.529 -6.2418,-24.679263 l -4.4657,-24.232698 -25.3732,0 4.656,24.481351 c 2.1313,11.84296 4.2627,20.71471 6.3433,26.75988 2.0806,5.99696 4.7067,11.0513 7.9291,15.21378 3.2224,4.06479 7.2821,7.53331 12.1411,10.20892 4.8082,2.77583 13.4859,5.898 25.9188,9.26757 -4.4531,18.98044 -7.8277,31.76601 -10.2001,38.40618 -2.3343,6.64144 -4.9097,11.25049 -7.6373,13.87662 -2.7784,2.57665 -6.7366,3.86561 -11.8874,3.86561 l -18.1418,0 0,22.89552 17.3426,0"
         style="fill:#7b7979;fill-opacity:1;fill-rule:nonzero;stroke:none"
         id="path56"
         inkscape:connector-curvature="0" /><path
         d="m 2356.4357,97.426442 c 17.0888,6.392788 31.8053,14.420868 44.0986,24.135008 12.2933,9.76235 21.6561,20.36709 28.0501,31.81549 6.4448,11.49661 9.6165,23.14292 9.6165,34.98714 0,19.57417 -10.5045,29.38727 -31.4755,29.38727 l -66.795,0 0,81.81849 24.6754,0 0,-58.92297 44.6569,0 c 36.03,0 53.9689,-16.05744 53.9689,-48.02136 0,-26.16614 -9.6165,-50.29988 -28.9001,-72.40249 -19.271,-22.053143 -45.2405,-38.902232 -77.8958,-50.59802 l 0,27.801442"
         style="fill:#7b7979;fill-opacity:1;fill-rule:nonzero;stroke:none"
         id="path58"
         inkscape:connector-curvature="0" /><path
         d="m 2796.7499,240.64687 25.5635,0 -4.1612,-44.10627 c -1.3321,-14.9664 -3.1716,-25.76905 -5.4552,-32.41049 -2.3217,-6.68965 -5.6456,-11.84422 -10.1493,-15.46117 -4.4657,-3.6677 -11.9508,-6.83936 -22.3031,-9.6634 l -20.1717,-4.65852 6.597,-34.690272 3.2098,0 c 18.0403,0 32.465,1.040302 43.3247,3.122172 10.8471,2.13135 19.3725,5.40196 25.6651,9.91078 6.2925,4.5101 11.1515,10.80392 14.6149,18.98045 3.3747,8.22726 6.2038,21.01283 8.2336,38.40744 l 8.4747,70.56928 25.9187,0 -8.5254,-69.67741 c -2.8291,-23.49053 -6.7873,-40.88514 -11.9,-52.23332 -5.1,-11.34817 -12.3314,-20.119694 -21.656,-26.314567 -9.312,-6.293828 -22.1509,-10.754441 -38.5039,-13.627958 -16.3531,-2.775831 -39.7472,-4.31218 -70.2204,-4.460613 l -31.5136,166.313868 25.7158,0 16.5053,-84.84171 9.8067,1.93217 c 9.718,2.08187 16.4546,5.898 20.3747,11.29869 3.8568,5.45144 6.1911,14.66953 7.2314,27.75197 l 3.3239,43.85888"
         style="fill:#7b7979;fill-opacity:1;fill-rule:nonzero;stroke:none"
         id="path60"
         inkscape:connector-curvature="0" /><path
         d="m 3095.8241,167.40072 c 0,16.94931 -3.7172,29.53697 -11.1515,37.9114 -7.4344,8.27675 -19.1314,12.43923 -35.142,12.43923 l -37.1083,0 0,-46.5345 32.7061,0 0,-22.84605 -57.8383,0 0,92.27607 62.545,0 c 24.0285,0 41.8785,-5.99696 53.5248,-17.94013 11.7352,-12.04214 17.5837,-30.57601 17.5837,-55.89975 l 0,-11.00183 c 0,-53.42333 -25.2717,-80.133721 -75.8152,-80.133721 l -56.3539,0 0,22.895529 57.0009,0 c 16.9874,0 29.6359,4.706732 37.7554,14.172212 8.1828,9.46548 12.2933,23.73792 12.2933,42.81732 l 0,11.84422"
         style="fill:#7b7979;fill-opacity:1;fill-rule:nonzero;stroke:none"
         id="path62"
         inkscape:connector-curvature="0" /><path
         d="m 3219.4678,75.671439 24.729,0 0,164.975431 -24.729,0 0,-164.975431 z"
         style="fill:#7b7979;fill-opacity:1;fill-rule:nonzero;stroke:none"
         id="path64"
         inkscape:connector-curvature="0" /><path
         d="m 3461.8963,172.60477 c 0,16.30356 -3.3112,27.9004 -9.9083,34.78923 -6.5462,6.9383 -18.0403,10.35735 -34.5837,10.35735 l -41.6374,0 0,-142.079911 -24.7262,0 0,164.975431 66.6554,0 c 24.7262,0 42.4241,-5.303 53.0808,-15.90774 10.606,-10.55653 15.9978,-28.0501 15.9978,-52.38175 l 0,-96.685941 -24.8784,0 0,96.933331"
         style="fill:#7b7979;fill-opacity:1;fill-rule:nonzero;stroke:none"
         id="path66"
         inkscape:connector-curvature="0" /><path
         d="m 3616.8125,75.671439 -24.7769,0 0,107.142241 24.7769,0 0,-107.142241 z m 104.7661,0 -24.8785,0 0,96.933331 c 0,16.45327 -3.3239,28.14778 -10.0097,34.93766 -6.6859,6.83935 -18.2307,10.20892 -34.6345,10.20892 l -62.6972,0 0,22.89552 63.1412,0 c 24.6755,0 42.4241,-5.303 53.0681,-15.90774 10.6568,-10.55653 16.0106,-28.0501 16.0106,-52.38175 l 0,-96.685941"
         style="fill:#7b7979;fill-opacity:1;fill-rule:nonzero;stroke:none"
         id="path68"
         inkscape:connector-curvature="0" /></g></g></svg>